<?xml version="1.0" encoding="UTF-8"?>
<svg width="700pt" height="700pt" version="1.1" viewBox="0 0 700 700" xmlns="http://www.w3.org/2000/svg" xmlns:xlink="http://www.w3.org/1999/xlink">
 <defs>
  <symbol id="x" overflow="visible">
   <path d="m0.03125 0h-0.03125v-0.015625-0.015625c0.0078125-0.0078125 0.019531-0.015625 0.03125-0.015625v0.015625h-0.015625v0.015625 0.015625h0.015625v-0.015625z"/>
  </symbol>
  <symbol id="c" overflow="visible">
   <path d="m0.03125-0.015625c0-0.0078125-0.0078125-0.015625-0.015625-0.015625v0.015625 0.015625h-0.015625v-0.03125h0.015625 0.015625z"/>
  </symbol>
  <symbol id="a" overflow="visible">
   <path d="m0.03125-0.015625h-0.015625v0.015625h0.015625v-0.015625 0.015625h-0.015625-0.015625v-0.015625l0.015625-0.015625c0.0078125 0 0.015625 0.0078125 0.015625 0.015625zm0 0h-0.015625v-0.015625 0.015625z"/>
  </symbol>
  <symbol id="b" overflow="visible">
   <path d="m0.015625-0.015625v0.015625l0.015625-0.015625zm0.015625 0v0.015625h-0.015625-0.015625v-0.015625h0.015625 0.015625-0.015625v-0.015625h-0.015625v0.015625-0.015625h0.015625 0.015625v0.015625z"/>
  </symbol>
  <symbol id="e" overflow="visible">
   <path d="m0.015625-0.046875v0.015625h0.015625-0.015625v0.015625 0.015625h0.015625-0.015625-0.015625v-0.015625-0.03125z"/>
  </symbol>
  <symbol id="i" overflow="visible">
   <path d="m0.03125-0.03125v-0.015625 0.046875h-0.015625-0.015625v-0.015625l0.015625-0.015625h0.015625zm-0.015625 0.03125 0.015625-0.015625h-0.015625v-0.015625 0.015625 0.015625z"/>
  </symbol>
  <symbol id="m" overflow="visible">
   <path d="m0.015625 0h0.015625v-0.015625c0-0.0078125-0.0078125-0.015625-0.015625-0.015625v0.015625 0.015625zm0-0.03125h0.015625v0.015625 0.015625h-0.015625-0.015625v-0.046875h0.015625z"/>
  </symbol>
  <symbol id="h" overflow="visible">
   <path d="m0-0.03125h0.015625v0.015625l0.015625-0.015625-0.015625 0.03125v0.015625h-0.015625v-0.015625h0.015625z"/>
  </symbol>
  <symbol id="l" overflow="visible">
   <path d="m0.03125-0.03125h-0.015625v0.015625 0.015625h0.015625v-0.015625-0.015625zm0-0.015625v0.015625c0.0078125 0 0.015625 0.0078125 0.015625 0.015625l-0.015625 0.015625h-0.03125v-0.015625-0.015625c0.0078125-0.0078125 0.019531-0.015625 0.03125-0.015625z"/>
  </symbol>
  <symbol id="w" overflow="visible">
   <path d="m0-0.046875h0.015625v0.046875h-0.015625z"/>
  </symbol>
  <symbol id="k" overflow="visible">
   <path d="m0-0.046875h0.015625v0.03125l0.015625-0.015625-0.015625 0.015625 0.015625 0.015625-0.015625-0.015625v0.015625h-0.015625z"/>
  </symbol>
  <symbol id="g" overflow="visible">
   <path d="m0.03125-0.03125v0.015625c0-0.0078125-0.0078125-0.015625-0.015625-0.015625v0.015625h0.015625v0.015625h-0.015625-0.015625v-0.015625 0.015625h0.015625v-0.015625h-0.015625v-0.015625h0.015625 0.015625z"/>
  </symbol>
  <symbol id="f" overflow="visible">
   <path d="m0.03125-0.015625v0.015625-0.015625h-0.015625v-0.015625 0.015625 0.015625h-0.015625v-0.03125h0.015625 0.015625v0.015625z"/>
  </symbol>
  <symbol id="j" overflow="visible">
   <path d="m0-0.046875h0.015625c0.0078125 0 0.015625 0.0078125 0.015625 0.015625v0.015625h-0.015625v0.015625h-0.015625zm0.015625 0.015625v0.015625h0.015625v-0.015625h-0.015625z"/>
  </symbol>
  <symbol id="d" overflow="visible">
   <path d="m0.015625-0.03125v0.015625 0.015625l0.015625-0.015625h-0.015625v-0.015625zm0 0c0.0078125 0 0.015625 0.0078125 0.015625 0.015625v0.015625h-0.015625-0.015625v-0.015625l0.015625-0.015625z"/>
  </symbol>
  <symbol id="v" overflow="visible">
   <path d="m0-0.03125h0.015625v0.015625l0.015625-0.015625v0.03125h-0.015625z"/>
  </symbol>
  <symbol id="u" overflow="visible">
   <path d="m0-0.03125h0.015625v0.03125h-0.015625zm0-0.015625h0.015625v0.015625h-0.015625z"/>
  </symbol>
  <symbol id="t" overflow="visible">
   <path d="m0.03125-0.046875v0.015625h-0.015625 0.015625-0.015625v0.03125h-0.015625v-0.03125l0.015625-0.015625z"/>
  </symbol>
  <symbol id="s" overflow="visible">
   <path d="m0.03125-0.03125h0.015625v0.015625 0.015625-0.015625-0.015625c-0.011719 0-0.015625 0.0078125-0.015625 0.015625v0.015625-0.015625h-0.015625v-0.015625 0.015625 0.015625h-0.015625v-0.03125h0.015625 0.015625z"/>
  </symbol>
  <symbol id="r" overflow="visible">
   <path d="m0.03125-0.015625v0.015625-0.015625h-0.015625v-0.015625 0.015625 0.015625h-0.015625v-0.046875h0.015625v0.015625h0.015625v0.015625z"/>
  </symbol>
  <symbol id="q" overflow="visible">
   <path d="m0-0.046875h0.015625l0.015625 0.03125v-0.03125h0.015625v0.046875h-0.015625l-0.015625-0.03125v0.03125h-0.015625z"/>
  </symbol>
  <symbol id="p" overflow="visible">
   <path d="m0-0.015625v-0.015625h0.015625v0.015625 0.015625l0.015625-0.015625v-0.015625 0.03125h-0.015625-0.015625v-0.015625z"/>
  </symbol>
  <symbol id="o" overflow="visible">
   <path d="m0-0.03125h0.015625v0.03125c0 0.0078125-0.0078125 0.015625-0.015625 0.015625zm0-0.015625h0.015625v0.015625h-0.015625z"/>
  </symbol>
  <symbol id="n" overflow="visible">
   <path d="m0.03125-0.03125v0.015625c0-0.0078125-0.0078125-0.015625-0.015625-0.015625v0.015625 0.015625h0.015625v-0.015625 0.015625h-0.015625-0.015625v-0.015625l0.015625-0.015625h0.015625z"/>
  </symbol>
 </defs>
 <g>
  <path d="m170.79 21.051h62.922c12.465 0 22.652 10.188 22.652 22.652v62.922c0 12.465-10.188 22.652-22.652 22.652h-62.922c-12.465 0-22.652-10.188-22.652-22.652v-62.922c0-12.465 10.188-22.652 22.652-22.652zm213.9 436.85c0-2.3477 3.5703-2.3477 3.5703 0v54.312c0 6.5391-5.3438 11.887-11.887 11.887h-54.312c-2.3477 0-2.3477-3.5703 0-3.5703h54.312c4.5703 0 8.3164-3.7461 8.3164-8.3164zm148.14-135.89c0-2.3477 3.5703-2.3477 3.5703 0v54.312c0 6.5391-5.3438 11.887-11.887 11.887h-54.312c-2.3477 0-2.3477-3.5703 0-3.5703h54.312c4.5703 0 8.3164-3.7461 8.3164-8.3164zm-148.14 0c0-2.3477 3.5703-2.3477 3.5703 0v54.312c0 6.5391-5.3438 11.887-11.887 11.887h-54.312c-2.3477 0-2.3477-3.5703 0-3.5703h54.312c4.5703 0 8.3164-3.7461 8.3164-8.3164zm-146.97 0c0-2.3477 3.5703-2.3477 3.5703 0v54.312c0 6.5391-5.3438 11.887-11.887 11.887h-54.312c-2.3477 0-2.3477-3.5703 0-3.5703h54.312c4.5703 0 8.3164-3.7461 8.3164-8.3164zm295.11-136.68c0-2.3477 3.5703-2.3477 3.5703 0v54.312c0 6.5391-5.3438 11.887-11.887 11.887h-54.312c-2.3477 0-2.3477-3.5703 0-3.5703h54.312c4.5703 0 8.3164-3.7461 8.3164-8.3164zm-148.14 0c0-2.3477 3.5703-2.3477 3.5703 0v54.312c0 6.5391-5.3438 11.887-11.887 11.887h-54.312c-2.3477 0-2.3477-3.5703 0-3.5703h54.312c4.5703 0 8.3164-3.7461 8.3164-8.3164zm-146.97 0c0-2.3477 3.5703-2.3477 3.5703 0v54.312c0 6.5391-5.3438 11.887-11.887 11.887h-54.312c-2.3477 0-2.3477-3.5703 0-3.5703h54.312c4.5703 0 8.3164-3.7461 8.3164-8.3164zm295.11-137.33c0-2.3477 3.5703-2.3477 3.5703 0v54.312c0 6.5391-5.3438 11.887-11.887 11.887h-54.312c-2.3477 0-2.3477-3.5703 0-3.5703h54.312c4.5703 0 8.3164-3.7461 8.3164-8.3164zm-148.14 0c0-2.3477 3.5703-2.3477 3.5703 0v54.312c0 6.5391-5.3438 11.887-11.887 11.887h-54.312c-2.3477 0-2.3477-3.5703 0-3.5703h54.312c4.5703 0 8.3164-3.7461 8.3164-8.3164zm-146.97 0c0-2.3477 3.5703-2.3477 3.5703 0v54.312c0 6.5391-5.3438 11.887-11.887 11.887h-54.312c-2.3477 0-2.3477-3.5703 0-3.5703h54.312c4.5703 0 8.3164-3.7461 8.3164-8.3164zm80.812 382.71h62.922c12.465 0 22.652 10.188 22.652 22.652v62.922c0 12.465-10.188 22.652-22.652 22.652h-62.922c-12.465 0-22.652-10.188-22.652-22.652v-62.922c0-12.465 10.188-22.652 22.652-22.652zm62.922 5.9492h-62.922c-9.1797 0-16.703 7.5234-16.703 16.703v62.922c0 9.1797 7.5234 16.703 16.703 16.703h62.922c9.1797 0 16.703-7.5234 16.703-16.703v-62.922c0-9.1797-7.5234-16.703-16.703-16.703zm84.824-142.99h62.922c12.465 0 22.652 10.188 22.652 22.652v62.922c0 12.465-10.188 22.652-22.652 22.652h-62.922c-12.465 0-22.652-10.188-22.652-22.652v-62.922c0-12.465 10.188-22.652 22.652-22.652zm62.922 5.9492h-62.922c-9.1797 0-16.703 7.5234-16.703 16.703v62.922c0 9.1797 7.5234 16.703 16.703 16.703h62.922c9.1797 0 16.703-7.5234 16.703-16.703v-62.922c0-9.1797-7.5234-16.703-16.703-16.703zm-210.67-5.4648h62.922c12.465 0 22.652 10.188 22.652 22.652v62.922c0 12.465-10.188 22.652-22.652 22.652h-62.922c-12.465 0-22.652-10.188-22.652-22.652v-62.922c0-12.465 10.188-22.652 22.652-22.652zm62.922 5.9492h-62.922c-9.1797 0-16.703 7.5234-16.703 16.703v62.922c0 9.1797 7.5234 16.703 16.703 16.703h62.922c9.1797 0 16.703-7.5234 16.703-16.703v-62.922c0-9.1797-7.5234-16.703-16.703-16.703zm-210.67-6.4336h62.922c12.465 0 22.652 10.188 22.652 22.652v62.922c0 12.465-10.188 22.652-22.652 22.652h-62.922c-12.465 0-22.652-10.188-22.652-22.652v-62.922c0-12.465 10.188-22.652 22.652-22.652zm62.922 5.9492h-62.922c-9.1797 0-16.703 7.5234-16.703 16.703v62.922c0 9.1797 7.5234 16.703 16.703 16.703h62.922c9.1797 0 16.703-7.5234 16.703-16.703v-62.922c0-9.1797-7.5234-16.703-16.703-16.703zm232.57-142.27h62.922c12.465 0 22.652 10.188 22.652 22.652v62.922c0 12.465-10.188 22.652-22.652 22.652h-62.922c-12.465 0-22.652-10.188-22.652-22.652v-62.922c0-6.2344 2.5469-11.895 6.6523-16s9.7695-6.6523 16-6.6523zm62.922 5.9492h-62.922c-4.5898 0-8.7656 1.8789-11.793 4.9102-3.0273 3.0273-4.9102 7.2031-4.9102 11.793v62.922c0 9.1797 7.5234 16.703 16.703 16.703h62.922c9.1797 0 16.703-7.5234 16.703-16.703v-62.922c0-9.1797-7.5234-16.703-16.703-16.703zm-210.67-5.707h62.922c12.465 0 22.652 10.188 22.652 22.652v62.922c0 12.465-10.188 22.652-22.652 22.652h-62.922c-12.465 0-22.652-10.188-22.652-22.652v-62.922c0-12.465 10.188-22.652 22.652-22.652zm62.922 5.9492h-62.922c-9.1797 0-16.703 7.5234-16.703 16.703v62.922c0 9.1797 7.5234 16.703 16.703 16.703h62.922c9.1797 0 16.703-7.5234 16.703-16.703v-62.922c0-9.1797-7.5234-16.703-16.703-16.703zm-210.67-6.1914h62.922c12.465 0 22.652 10.188 22.652 22.652v62.922c0 12.465-10.188 22.652-22.652 22.652h-62.922c-12.465 0-22.652-10.188-22.652-22.652v-62.922c0-12.465 10.188-22.652 22.652-22.652zm62.922 5.9492h-62.922c-9.1797 0-16.703 7.5234-16.703 16.703v62.922c0 9.1797 7.5234 16.703 16.703 16.703h62.922c9.1797 0 16.703-7.5234 16.703-16.703v-62.922c0-9.1797-7.5234-16.703-16.703-16.703zm232.57-142.27h62.922c12.465 0 22.652 10.188 22.652 22.652v62.922c0 12.465-10.188 22.652-22.652 22.652h-62.922c-12.465 0-22.652-10.188-22.652-22.652v-62.922c0-12.465 10.188-22.652 22.652-22.652zm62.922 5.9492h-62.922c-9.1797 0-16.703 7.5234-16.703 16.703v62.922c0 9.1797 7.5234 16.703 16.703 16.703h62.922c9.1797 0 16.703-7.5234 16.703-16.703v-62.922c0-9.1797-7.5234-16.703-16.703-16.703zm-210.67-5.9492h62.922c12.465 0 22.652 10.188 22.652 22.652v62.922c0 12.465-10.188 22.652-22.652 22.652h-62.922c-12.465 0-22.652-10.188-22.652-22.652v-62.922c0-12.465 10.188-22.652 22.652-22.652zm62.922 5.9492h-62.922c-9.1797 0-16.703 7.5234-16.703 16.703v62.922c0 9.1797 7.5234 16.703 16.703 16.703h62.922c9.1797 0 16.703-7.5234 16.703-16.703v-62.922c0-9.1797-7.5234-16.703-16.703-16.703zm-147.75 0h-62.922c-9.1797 0-16.703 7.5234-16.703 16.703v62.922c0 9.1797 7.5234 16.703 16.703 16.703h62.922c9.1797 0 16.703-7.5234 16.703-16.703v-62.922c0-9.1797-7.5234-16.703-16.703-16.703z"/>
  <use x="70" y="560.167969" xlink:href="#x"/>
  <use x="70.042969" y="560.167969" xlink:href="#c"/>
  <use x="70.070312" y="560.167969" xlink:href="#a"/>
  <use x="70.105469" y="560.167969" xlink:href="#b"/>
  <use x="70.144531" y="560.167969" xlink:href="#e"/>
  <use x="70.171875" y="560.167969" xlink:href="#a"/>
  <use x="70.210938" y="560.167969" xlink:href="#i"/>
  <use x="70.269531" y="560.167969" xlink:href="#m"/>
  <use x="70.308594" y="560.167969" xlink:href="#h"/>
  <use x="70.363281" y="560.167969" xlink:href="#l"/>
  <use x="70.414063" y="560.167969" xlink:href="#w"/>
  <use x="70.433594" y="560.167969" xlink:href="#a"/>
  <use x="70.46875" y="560.167969" xlink:href="#k"/>
  <use x="70.507812" y="560.167969" xlink:href="#g"/>
  <use x="70.539062" y="560.167969" xlink:href="#b"/>
  <use x="70.578125" y="560.167969" xlink:href="#f"/>
  <use x="70.617188" y="560.167969" xlink:href="#i"/>
  <use x="70.65625" y="560.167969" xlink:href="#c"/>
  <use x="70.707031" y="560.167969" xlink:href="#j"/>
  <use x="70.746094" y="560.167969" xlink:href="#b"/>
  <use x="70.785156" y="560.167969" xlink:href="#f"/>
  <use x="70.824219" y="560.167969" xlink:href="#b"/>
  <use x="70.863281" y="560.167969" xlink:href="#g"/>
  <use x="70.894531" y="560.167969" xlink:href="#d"/>
  <use x="70.933594" y="560.167969" xlink:href="#v"/>
  <use x="70.96875" y="560.167969" xlink:href="#g"/>
  <use x="71.003906" y="560.167969" xlink:href="#k"/>
  <use x="71.039062" y="560.167969" xlink:href="#h"/>
  <use x="71.078125" y="560.167969" xlink:href="#u"/>
  <use x="70" y="560.222656" xlink:href="#t"/>
  <use x="70.023438" y="560.222656" xlink:href="#c"/>
  <use x="70.050781" y="560.222656" xlink:href="#d"/>
  <use x="70.089844" y="560.222656" xlink:href="#s"/>
  <use x="70.167969" y="560.222656" xlink:href="#e"/>
  <use x="70.195313" y="560.222656" xlink:href="#r"/>
  <use x="70.234375" y="560.222656" xlink:href="#a"/>
  <use x="70.292969" y="560.222656" xlink:href="#q"/>
  <use x="70.339844" y="560.222656" xlink:href="#d"/>
  <use x="70.378906" y="560.222656" xlink:href="#p"/>
  <use x="70.417969" y="560.222656" xlink:href="#f"/>
  <use x="70.476562" y="560.222656" xlink:href="#j"/>
  <use x="70.519531" y="560.222656" xlink:href="#c"/>
  <use x="70.546875" y="560.222656" xlink:href="#d"/>
  <use x="70.585938" y="560.222656" xlink:href="#o"/>
  <use x="70.601562" y="560.222656" xlink:href="#a"/>
  <use x="70.640625" y="560.222656" xlink:href="#n"/>
  <use x="70.675781" y="560.222656" xlink:href="#e"/>
 </g>
</svg>
